<?xml version="1.0" encoding="UTF-8" standalone="no"?>
<svg
   xmlns:dc="http://purl.org/dc/elements/1.1/"
   xmlns:cc="http://creativecommons.org/ns#"
   xmlns:rdf="http://www.w3.org/1999/02/22-rdf-syntax-ns#"
   xmlns:svg="http://www.w3.org/2000/svg"
   xmlns="http://www.w3.org/2000/svg"
   xmlns:sodipodi="http://sodipodi.sourceforge.net/DTD/sodipodi-0.dtd"
   xmlns:inkscape="http://www.inkscape.org/namespaces/inkscape"
   sodipodi:docname="flag.svg"
   inkscape:version="1.0beta1 (32d4812, 2019-09-19)"
   id="svg8"
   version="1.1"
   viewBox="0 0 304.79999 182.88006"
   height="182.88007mm"
   width="304.79999mm">
  <defs
     id="defs2">
    <clipPath
       clipPathUnits="userSpaceOnUse"
       id="clipPath48">
      <path
         d="M 0,792 H 1224 V 0 H 0 Z"
         id="path46"
         inkscape:connector-curvature="0" />
    </clipPath>
    <clipPath
       clipPathUnits="userSpaceOnUse"
       id="clipPath282">
      <path
         d="M 0,792 H 1224 V 0 H 0 Z"
         id="path280"
         inkscape:connector-curvature="0" />
    </clipPath>
    <clipPath
       id="clipPath48-6"
       clipPathUnits="userSpaceOnUse">
      <path
         inkscape:connector-curvature="0"
         id="path46-0"
         d="M 0,792 H 1224 V 0 H 0 Z" />
    </clipPath>
  </defs>
  <sodipodi:namedview
     inkscape:window-maximized="0"
     inkscape:window-y="23"
     inkscape:window-x="0"
     inkscape:window-height="781"
     inkscape:window-width="1440"
     showgrid="false"
     inkscape:document-rotation="0"
     inkscape:current-layer="layer1"
     inkscape:document-units="mm"
     inkscape:cy="249.61706"
     inkscape:cx="576.00018"
     inkscape:zoom="0.35"
     inkscape:pageshadow="2"
     inkscape:pageopacity="0.0"
     borderopacity="1.0"
     bordercolor="#666666"
     pagecolor="#ffffff"
     id="base" />
  <metadata
     id="metadata5">
    <rdf:RDF>
      <cc:Work
         rdf:about="">
        <dc:format>image/svg+xml</dc:format>
        <dc:type
           rdf:resource="http://purl.org/dc/dcmitype/StillImage" />
        <dc:title></dc:title>
      </cc:Work>
    </rdf:RDF>
  </metadata>
  <g
     transform="translate(22.678569,-127.89818)"
     id="layer1"
     inkscape:groupmode="layer"
     inkscape:label="Layer 1">
    <g
       id="g36"
       inkscape:label="DetroitRiseFlag_Guidelines_07302019"
       transform="matrix(0.35277777,0,0,-0.35277777,-280.9119,309.03333)">
      <g
         transform="translate(408.00001,-98.54602)"
         id="g42">
        <g
           clip-path="url(#clipPath48-6)"
           id="g44">
          <g
             transform="translate(1188,537.9048)"
             id="g50">
            <path
               inkscape:connector-curvature="0"
               id="path52"
               style="fill:#ffffff;fill-opacity:1;fill-rule:nonzero;stroke:none"
               d="m 0,0 v 74.081 l -864,-432.026 v -86.36 h 431.999 C -581.099,-286.126 -173.517,-93.034 0,0" />
          </g>
          <g
             transform="translate(1188,537.9048)"
             id="g54">
            <path
               inkscape:connector-curvature="0"
               id="path56"
               style="fill:#47b8eb;fill-opacity:1;fill-rule:nonzero;stroke:none"
               d="M 0,0 C -173.517,-93.034 -581.099,-286.126 -432.001,-444.305 H 0 Z" />
          </g>
          <g
             transform="translate(1188,612)"
             id="g58">
            <path
               inkscape:connector-curvature="0"
               id="path60"
               style="fill:#231f20;fill-opacity:1;fill-rule:nonzero;stroke:none"
               d="M 0,0 H -864 V -432.04 L 0,-0.014 Z" />
          </g>
          <g
             transform="translate(536.3789,497.9346)"
             id="g62">
            <path
               inkscape:connector-curvature="0"
               id="path64"
               style="fill:#ffffff;fill-opacity:1;fill-rule:nonzero;stroke:none"
               d="m 0,0 h 51.277 l 0.141,-0.596 c -13.686,-10.035 -27.371,-20.07 -41.335,-30.309 5.25,-16.299 10.444,-32.426 15.638,-48.553 -0.192,-0.152 -0.384,-0.304 -0.575,-0.456 -13.674,9.863 -27.348,19.725 -41.395,29.856 -13.864,-9.954 -27.802,-19.962 -42.446,-30.477 5.444,16.887 10.642,33.009 15.994,49.611 -13.74,10.081 -27.505,20.18 -41.27,30.278 0.012,0.196 0.024,0.392 0.035,0.587 h 51.311 c 5.422,16.682 10.694,32.901 15.967,49.12 0.212,10e-4 0.425,0.002 0.637,0.004 C -10.736,32.881 -5.452,16.698 0,0" />
          </g>
        </g>
      </g>
    </g>
  </g>
</svg>
